# xmcd CD database file
# Copyright (C) 1993-1996 Ti Kan
#
# Track frame offsets:
# 150
# 13040
# 24210
# 36545
# 47602
# 58347
# 68510
# 79200
# 92277
# 105040
# 117130
# 128827
# 140285
# 152487
# 163810
# 174987
# 186280
# 196292
# 205857
# 219330
# 230372
# 243167
# 254317
# 266500
# 276372
# 288502
# 298527
# 308842
# 321650
# 331277
# 343025
#
# Disc length: 4712 seconds
#
# Revision: 0
# Processed by: cddbd v1.4b41PL1 Copyright (c) Steve Scherf et al.
# Submitted via: inCDius 1.1b5
#
DISCID=b912661f
DTITLE=Ernest Tubb - The Yellow Rose Of Texas - Disc 2
DYEAR=1900
DGENRE=
TTITLE0=There's No Fool Like A Young Fool
TTITLE1=I Knew The Moment I Lost You
TTITLE2=You're Breaking My Heart
TTITLE3=When A Soldier Knocks And finds Nobody Home
TTITLE4=This Troubled Mind O'mine
TTITLE5=My Hillbilly Baby
TTITLE6=Daisy May
TTITLE7=Loving You Is My Weakness
TTITLE8=Treat Her Right
TTITLE9=I Want You To Know (I Love You)
TTITLE10=Don't Forbid Me
TTITLE11=God's Eyes
TTITLE12=My Treasure
TTITLE13=Leave Me
TTITLE14=Mister Love
TTITLE15=I Always Went Through
TTITLE16=Go Home
TTITLE17=Hey Mr. Bluebird
TTITLE18=How Do We Know
TTITLE19=House Of Glass
TTITLE20=Heaven Help Me
TTITLE21=Tangled Mind
TTITLE22=Home Of The Blues
TTITLE23=I Found My Girl In The U. S. A.
TTITLE24=Geisha Girl
TTITLE25=I Wonder Why I Worry Over You
TTITLE26=Deep Purple Blues
TTITLE27=Please Keep Me In Mind
TTITLE28=Deep Purple Blues
TTITLE29=Please Keep Me In Mind
TTITLE30=I Wonder Why I Worry Over You
EXTD=
EXTT0=
EXTT1=
EXTT2=
EXTT3=
EXTT4=
EXTT5=
EXTT6=
EXTT7=
EXTT8=
EXTT9=
EXTT10=
EXTT11=
EXTT12=
EXTT13=With The Wilburn Brothers
EXTT14=With The Wilburn Brothers
EXTT15=
EXTT16=
EXTT17=With The Wilburn Brothers
EXTT18=With the Wilburn Brothers
EXTT19=
EXTT20=
EXTT21=
EXTT22=
EXTT23=
EXTT24=
EXTT25=
EXTT26=
EXTT27=
EXTT28=
EXTT29=
EXTT30=
PLAYORDER=
